<?xml version="1.0" encoding="UTF-8"?>
<svg xmlns="http://www.w3.org/2000/svg" width="24px" height="24px" viewBox="0 0 24 24"  >
    <path fill="rgb(0, 110, 150)" d="M6.01,20.14c-.46,0-.85-.17-1.19-.5-.33-.33-.5-.73-.5-1.19V5.85c0-.47,.17-.87,.5-1.21,.33-.33,.73-.5,1.19-.5h5c.24,0,.45,.09,.61,.26,.16,.17,.25,.38,.25,.62,0,.23-.08,.42-.25,.59s-.37,.25-.61,.25H6.01v12.6h12.6v-5c0-.24,.08-.45,.25-.61,.16-.16,.37-.25,.61-.25,.23,0,.43,.08,.6,.25,.17,.16,.26,.37,.26,.61v5c0,.46-.17,.85-.5,1.19-.33,.33-.74,.5-1.21,.5H6.01Zm3.89-5.6c-.16-.16-.24-.35-.25-.58,0-.23,.07-.43,.25-.6l7.54-7.52h-3.44c-.24,0-.45-.08-.61-.25s-.25-.37-.25-.61c0-.23,.08-.43,.25-.6,.16-.17,.37-.26,.61-.26h5.47c.23,0,.43,.09,.6,.26,.17,.17,.26,.37,.26,.6v5.47c0,.24-.09,.45-.26,.61s-.38,.25-.62,.25c-.23,0-.42-.08-.59-.25-.16-.16-.25-.37-.25-.61v-3.42l-7.52,7.54c-.16,.16-.35,.23-.59,.22-.23,0-.44-.1-.61-.27Z"/>
</svg>